<svg xmlns="http://www.w3.org/2000/svg" width="440" height="396" xmlns:v="https://vecta.io/nano"><path d="M358.688 39.125c7.806 5.29 13.288 11.771 17.813 20 4.08 7.34 9.423 12.154 16.625 16.375 6.786 4.069 11.584 10.091 14.211 17.551 3.543 15.737-1.476 30.248-9.76 43.59C389.043 149.852 378.91 161.295 363 165c-9.027 1.339-17.658-1.37-25-6.687L335 156c-5.321-1.774-11.938-2.175-17.238-.141-1.637.967-3.206 2.048-4.762 3.141l-3 1c-.752 1.969-1.396 3.98-2 6l-1.734 4.223c-11.125 26.603-17.392 54.136-17.423 83.05l-.015 3.198-.026 6.801-.053 10.77-.149 30.595-.101 18.773-.026 7.136-.055 9.957.009 2.966c-.064 5.259-.45 9.003-3.426 13.531-5.424 5.189-9.677 7.242-17.148 7.275l-3.692.029-3.965-.003-4.098.013-8.579.002a1378.11 1378.11 0 0 0-10.951.034l-8.463.012-5.987.029c-8.147-.041-13.662-.319-19.93-5.891-4.314-4.93-5.305-8.791-5.326-15.205l-.017-2.78-.003-3.014-.015-3.205-.026-6.893-.053-10.97-.149-31.195-.101-19.1-.026-7.222c-.029-19.67-1.397-38.841-6.472-57.915l-1.544 11.652-.77 5.78-1.36 10.916-.707 5.528c-3.271 24.808-3.08 49.564-3.123 74.541l-.075 17.857-.005 8.261-.031 5.054.019 2.279c-.073 6.315-1.577 10.901-5.653 15.883-5.65 4.622-10.855 5.713-18.027 5.684l-2.334.016c-1.619.006-3.239.005-4.858-.003-2.458-.009-4.914.02-7.372.052a1633.91 1633.91 0 0 1-4.748-.002l-2.195.034c-6.024-.081-11.335-1.807-15.784-6.013-4.193-4.838-4.582-8.775-4.605-14.916l-.02-2.278-.036-4.906-.065-7.816-.182-22.228-.12-13.607-.037-5.138c-.083-16.084-1.23-31.787-5.179-47.44l-.788-3.215c-1.721-6.828-3.744-13.332-6.517-19.812C103 215 103 215 103 213l-1.992.48c-16.199 2.798-28.838-1.067-42.302-10.256-3.067-2.201-5.996-4.555-8.893-6.974l-1.675-1.393c-2.821-2.433-4.544-4.525-6.137-7.857l-2.812-.437c-4.395-.776-5.561-1.942-8.187-5.562-4.506-10.76-5.021-25.893-1.562-37.062 4.854-10.999 15.915-19.734 25.188-26.992 2.174-1.78 3.852-3.529 5.625-5.695 7.427-8.617 15.889-16.367 27.726-17.427 17.769-.524 30.83 3.462 46.231 12.187 1.905 1.052 3.84 2.028 5.792 2.99-8.16-8.369-8.16-8.369-17-16l1-5c1.715-.734 1.715-.734 4-1 2.191 1.484 2.191 1.484 4.563 3.75l2.656 2.523L138 96l2.781 2.664c18.9 18.422 33.014 40.573 44.219 64.336l1.586 3.348c10.663 23.666 16.714 49.806 17.966 75.715l.128 2.616c.422 9.414.472 18.825.49 28.247l.06 12.753.097 23.6.081 16.564.015 6.276.048 8.727-.02 2.599c.062 3.962.274 6.089 2.333 9.565 3.75 3.366 7 3.118 11.9 3.151l3.459.029 3.725.013 3.841.017 8.044.02 10.275.058 9.84.03 3.713.037c8.188.106 8.188.106 15.42-3.366 1.795-2.909 2.251-5.102 2.258-8.496l.021-2.716-.008-2.959.016-3.136.018-6.754.041-10.758.111-30.594.085-18.727.018-7.075c.001-18.434 1.165-36.504 5.019-54.57.544-2.852.785-5.687 1.003-8.579 3.809-49.391 30.462-97.724 58.873-137.267 1.729-2.178 1.729-2.178 1.547-4.371l-16-2-2 6a115.89 115.89 0 0 1-2.582 5l-1.556 2.891L323.188 72c-20.743 39.276-37.702 82.79-41.505 127.318-.33 3.632-.72 6.56-2.682 9.682-4.875-.875-4.875-.875-6-2-.378-49.805 23.108-108.042 49-150l-3.648 1.094-4.727 1.406-2.406.723-2.305.684-2.126.635C305 62 305 62 303 62l-1.207 3.766c-1.214 3.647-2.554 7.217-3.992 10.781-15.087 37.451-22.842 76.98-27.314 116.986l-.256 2.229-.676 6.131C269 205 269 205 267 207c-3.536-.536-3.536-.536-5-2-.918-47.081 14.23-98.063 32-141l-3.594.125c-5.908 0-10.919-2.13-16.406-4.125l-.109 2.738c-.653 14.12-2.368 28.112-4.016 42.144l-.93 8.015-1.947 16.697-2.738 23.502-2.135 18.349-.457 3.925-1.285 10.997-.381 3.271-.697 5.838-.543 4.725c-.54 4.574-.54 4.574-2.763 6.798-2.625-.375-2.625-.375-5-1-.214-7.758.449-15.275 1.361-22.974l.438-3.818 1.196-10.276 1.252-10.794 2.106-18.106 2.697-23.209 2.322-20.012.744-6.408 1.393-11.948.414-3.571.387-3.296.332-2.849c.382-2.928.856-5.831 1.357-8.741l-5.75 1.813-3.234 1.02C255.197 63.924 253.35 65.153 251 67h-2l.013 3.637.09 34.447.047 17.696c.172 45.332.172 45.332-1.034 66.856l-.118 2.226c-.64 11.6-.64 11.6-2.999 15.138l-5-1c-1.254-3.755-.937-7.12-.665-11.038l.282-4.415.155-2.377c1.459-22.835 1.468-45.629 1.365-68.5l-.04-15.533L241 74l-2.957 1.531-3.855 1.969-1.947 1.012C229.305 80.002 227.339 81 224 81l.586 2.778c1.817 8.813 3.288 17.602 4.414 26.534l.251 1.962c1.379 10.846 2.479 21.71 3.437 32.601l.184 2.082c1.343 15.375 2.3 30.664 2.191 46.106l-.014 3.814L235 206c-2.375.625-2.375.625-5 1-2.904-2.904-2.388-5.969-2.492-9.871l-.191-5.052-.093-2.717C225.973 153.996 222.275 118.977 217 84l-2.639.433-3.497.559-3.452.558c-4.495.593-8.889.633-13.411.45l1.434 2.84c16.807 34.045 30.4 77.652 28.566 116.16l-2 2c-2.625-.375-2.625-.375-5-1l-.288-2.633C212.461 165.058 204.553 129.471 189 94l-.971-2.469c-1.581-3.732-2.501-5.302-6.279-6.941l-3.75-.652c-7.72-1.575-13.398-4.561-20-8.937l1.063 1.547C183.415 112.14 213.909 158.881 213 204l-2 3-5-1-.48-3.016c-7.286-44.261-26.403-82.717-51.768-119.436l-4.486-6.689c-3.381-5.188-3.381-5.188-8.23-8.855-2.192-.421-3.83-.333-6.035-.004l-2.406.25c-2.623.389-5.053.995-7.594 1.75l-2.461.688c-3.435 1.37-5.748 2.683-7.412 6.111C113.355 81.43 112.128 86.177 111 91c-1.666.043-3.334.041-5 0-1-1-1-1-1.312-3.812.22-11.925 7.096-23.072 15.063-31.437 11.803-11.272 24.947-15.313 41.043-15.031 9.248.42 17.647 4.238 25.867 8.23 7.151 3.211 16.375 3.218 23.949 1.438 2.549-.998 4.949-2.147 7.391-3.387 21.547-10.692 41.128-14.64 64.721-7.691 9.582 2.722 17.207 1.242 26.154-2.809l4.367-1.906 1.902-.854c13.928-5.555 31.132-1.847 43.543 5.385zM312 43l-5.375 2.188-2.336.98c-9.03 3.282-17.285 1.821-26.289-.668-21.368-5.43-38.344-1.227-57.785 8.477-10.305 5.027-21.831 5.938-32.996 3.043-3.148-1.218-6.176-2.562-9.219-4.02l-5.5-2.25-2.281-.953c-10.956-3.935-22.834-2.152-33.211 2.563-5.149 2.65-8.55 4.907-12.008 9.641l2.824-.324c16.213-1.525 28.687 2.448 41.988 12.074 12.55 8.039 31.194 6.001 45.004 3.223 12.27-2.706 22.465-8.413 32.246-16.16C256.549 53.707 266.471 52.74 278 54c2.446.61 4.662 1.392 7.004 2.309 9.009 3.121 17.89-1.011 26.445-3.84 14.593-4.79 28.447-4.58 43.09-.441 2.817.792 5.585 1.449 8.461 1.973-6.268-8.239-13.689-13.234-24-15-9.783-.823-17.953-.119-27 4zm43 17c-1.71 1.708-1.71 1.708-3.137 4.066l-1.735 2.637-1.815 2.859-1.89 2.911C341.43 80.209 336.588 88.018 332 96l-1.153 1.982c-5.492 9.474-10.473 19.151-15.222 29.018l-1.515 3.146c-4.547 9.23-4.547 9.23-8.11 18.854l1 2 1.836-3.227C320.949 126.698 336.926 102.339 357 88c2.938-.375 2.938-.375 5 0-1.343 5.898-4.367 8.823-8.625 12.813L347 107v1l3.734-.105c24.17-.484 24.17-.484 33.578 7.355 3.586 3.719 6.059 7.865 7.688 12.75h2c1.814-3.048 2.97-5.301 3.125-8.875-1.995-5.541-6.115-9.594-10.75-13.125-8.548-7.198-10.539-19.427-11.715-30.078-.454-4.052-.832-6.138-3.863-9.008-2.536-1.816-5.063-3.415-7.797-4.914l-2.07-1.187c-2.195-1.071-2.195-1.071-5.93-.812zm27 18c.423 10.13 2.701 17.457 10.258 24.43L394 104l2.813 2.875c2 2.157 2 2.157 4.188 3.125.622-8.821.296-15.674-5-23-3.458-3.717-7.482-6.676-12-9h-2zM60.115 121.618c-3.619 4.003-7.547 7.24-11.818 10.511C43.395 136.122 38.75 140.778 37 147l2.047-.863c3.356-1.292 6.76-2.286 10.203-3.324 9.595-3.087 15.626-8.246 22.082-15.898 7.058-8.099 16.066-13.318 26.855-14.164 10.777.707 19.344 5.439 26.746 13.305l3.352 4.012c5.009 5.648 11.291 9.328 17.84 12.934 9.62 5.364 13.679 10.263 18.344 20.188 3.195 5.869 8.372 9.377 14.531 11.813l2-1c-8.631-26.706-32.029-51.942-56.562-65.277-26.776-13.419-44.862-8.956-64.323 12.896zm288.76-6.306l-2.051.357c-4.364.823-7.949 2.175-11.824 4.33v1l3.586.48c12.02 1.723 22.053 3.514 30.016 13.477 3.363 4.912 4.891 10.363 6.398 16.043 2.389-1.941 4.709-3.945 7-6l1.613-1.418c1.972-1.983 3.275-3.812 3.68-6.609-.307-6.479-3.076-12.12-7.293-16.973-9.681-6.758-19.939-6.854-31.125-4.687zM88 122l-2 2 2.133 2.395c19.448 22.099 37.279 47.251 45.867 75.73l.63 2.081c1.219 4.355 1.557 8.285 1.37 12.794l-5 1-.594-3.051C123.397 181.138 102.949 153.01 80 128l-3.437 2.75-1.934 1.547c-1.842 1.926-2.092 3.148-2.629 5.703l2.746 2.309C97.538 159.572 119.643 184.51 125 215c-.406 2.898-.406 2.898-1 5h-5l-.191-1.809C116.793 203.91 110.104 190.768 102 179l-2.062-3.023C91.186 163.913 80.059 151.789 68 143c-3.894.161-7.261 1.839-10.812 3.375-3.515 1.516-6.978 2.905-10.625 4.063-4.431 1.944-5.884 3.585-8.562 7.563-1.179 3.438-1.2 6.823-1.25 10.438l-.078 3.371c.359 3.496 1.313 5.354 3.328 8.191l2.816-.875L46.563 178l3.691-1.125c4.936-1.153 8.978-1.721 13.621.5C66 179 66 179 67 181c.233 6.533.233 6.533-1 9-.495 4.371-.558 6.282 2.188 9.813 2.624 2.041 4.736 3.045 7.813 4.188l.297-2.746c.818-6.663 1.723-12.429 4.898-18.387 1.069-2.141 1.069-2.141.805-5.867-1.029-1.756-1.029-1.756-2.52-3.348l-1.6-1.834-1.693-1.881-1.658-1.893c-2.979-3.39-2.979-3.39-6.169-6.578-1.848-1.992-2.003-3.824-2.361-6.467 4.371 0 6.648 1.248 9.688 4.188 21.174 22.706 36.105 50.722 43.125 80.938l.591 2.524c3.023 13.894 3.886 27.821 3.902 41.997l.041 7.897.111 22.407.085 13.811.018 5.229.041 7.277-.014 2.16c.063 4.357.739 7.112 3.415 10.574 4.498 2.955 8.091 3.376 13.41 3.363l2.091.002 4.349-.029 6.629-.014c10.064.239 10.064.239 18.771-4.197 3.436-4.173 2.895-8.891 2.892-14.086l.011-2.427.016-5.231.041-8.398.116-23.888c.056-24.429.98-48.343 4.209-72.57 1.925-14.581 2.747-28.818 2.465-43.524l-8-3-.076 2.966-.296 10.914-.125 4.72-.186 6.792-.051 2.125c-.099 3.287-.274 6.336-1.266 9.485l-5 1 .127-3.713.313-13.737.164-5.927c.98-12.968.98-12.968-4.447-24.123L159 167c-1.875-3.066-1.875-3.066-3-5.562l-1.187-2.566L154 157c-1.071 3.274-.898 5.395-.074 8.719l.663 2.796.723 2.985c1.789 7.769 3.243 15.435 4 23.375l.23 2.389c1.172 13.696 1.172 13.696-.542 19.736l-5 1-.028-1.946c-.355-19.588-2.806-37.786-7.972-56.679l-.718-2.677c-2.028-7.006-4.773-10.046-11.157-13.636A65.68 65.68 0 0 1 123 135c1.273 3.316 2.694 6.435 4.391 9.555C139.881 167.779 149 191.233 149 218h-6l-.227-3.855C141.422 194.881 136.525 177.305 128 160l-1.109-2.272c-10.022-22.479-10.022-22.479-26.578-38.728-4.46 0-8.262 1.161-12.312 3zm240 8c1.956 1 3.896 1.957 5.93 2.789 7.106 3.054 10.505 7.605 13.551 14.621 1.235 3.179 2.409 6.366 3.52 9.59 6.26.932 11.022 1.209 17-1-.191-8.319-1.966-14.537-7.617-20.789-8.425-7.34-22.133-9.115-32.383-5.211zm-5 7c-1.8 1.972-1.8 1.972-3.25 4.5l-1.578 2.531L317 146l1 2 2.965-.105c7.628-.158 13.904.103 21.035 3.105-2.574-6.359-6.646-10.284-12.687-13.375-2.557-.799-2.557-.799-6.312-.625zM50 184c1.382 3.21 2.924 5.049 5.625 7.25L59 194l2-11c-5.018-1.004-6.469-.791-11 1zm37 2c-4.505 6.66-4.138 13.241-4 21h4l.367-2.195c.882-5.09 1.797-9.954 3.633-14.805l-4-4zm8 12l-1 9 5-1c-1.27-4.415-1.27-4.415-4-8z" fill="#fff"/></svg>