<svg xmlns="http://www.w3.org/2000/svg" width="424" height="448" xmlns:v="https://vecta.io/nano"><path d="M141.168 47.824l3.721.004c14.033.088 28.021.851 42.025 1.716l11.098.645 8.759.518 6.033.344c19.105 1.221 37.045 4.833 50.571 19.387 3.776 4.712 6.029 9.566 5.563 15.688-1.227 5.071-2.921 8.45-7.233 11.497-2.92 1.487-4.973 1.872-8.224 2.108l-3.096.244-3.197.213-3.256.248L236 101c-7.447 56.653 2.782 113.855 19.996 167.826L261 285.125l1.75 5.758L264 295c1.278-2.556 1.314-4.65 1.535-7.504l.265-3.408c1.794-24.936 1.194-47.735-4.8-72.088l-3.789-.895c-4.094-.966-7.001-2.278-10.211-5.105-1.891-4.009-2.179-6.165-1.25-10.5 4.552-8.75 14.974-11.787 23.734-14.555 18.016-4.844 35.027-.527 52.266 5.055l2.238.717c6.49 2.203 12.422 5.206 16.012 11.283.581 2.968.394 4.896 0 8-1.87 2.431-3.281 3.641-6 5-1.875.133-1.875.133-4 .125l-2.125.008C326 211 326 211 324 210l-.647 5.295-.838 5.921c-1.338 9.135-1.917 18.101-1.89 27.346l.002 2.18c.137 40.317 7.538 80.877 15.745 120.228l.507 2.443.942 4.464c1.913 9.173 3.944 18.928-1.199 27.392-6.981 8.73-16.511 10.619-27.102 12.07-11.906 1.315-23.694 1.183-35.52-.652l-2.316-.356c-14.539-2.472-14.539-2.472-18.621-7.394L251 406l-2-2-1.18 1.504c-13.469 16.356-32.191 21.29-52.324 23.961-3.173.296-6.311.451-9.496.535l-2.103.062c-24.745.641-52.015-1.503-71.46-18.562L108 407l-1.879-1.82c-19.253-19.9-22.634-51.786-22.332-78.062.493-19.328 5.651-37.089 11.543-55.359C104.811 242.284 111.767 212.684 116 182l.398-2.719c1.848-12.956 1.776-25.971 1.79-39.031l.004-2.647c-.002-11.569-.377-23.063-1.191-34.603l-3.147-.34C103.138 101.462 92.928 99.928 85 92c-2.018-4.037-1.574-8.621-1-13 4.286-11.417 15.322-19.833 26-25 10.784-4.359 19.62-6.191 31.168-6.176zM226 101c-1.218 5.917-1.336 11.858-1.562 17.875l-.131 3.242L224 130l-5 1v-29h-2c-1.488 12.728-2.279 25.186-2 38-2.076.553-3.844 1-6 1-.105-13.041-.167-26.002 1-39l-5 1c-.984 6.552-1.154 12.943-1.125 19.563l.006 3.189c.045 8.118.394 16.162 1.119 24.248l-5-1c-2.383-9.721-2.232-19.258-2.125-29.187l.027-4.908L198 103h-4c-1.265 9.703-1.112 19.36-1.062 29.125l.014 5.211L193 150l-6-1c-1.522-11.416-1.001-22.77-.5-34.25l.145-3.449L187 103h-3c-1.744 7.392-2.394 14.545-2.625 22.125l-.117 3.188L181 136c-2.076.553-3.844 1-6 1l1-34h-4c-1.755 13.651-2.548 27.247-3 41h-5c-.107-13.707-.141-27.332 1-41h-6l-1 37-3 1-2-1-1-37h-5l.217 2.27c.786 9.03.902 17.99.846 27.042l-.014 4.303L148 147l-5-1-.06-2.364-.315-10.823-.094-3.717c-.02-13.401-.02-13.401-3.531-26.096h-4l.402 2.727c1.611 11.737 2.195 23.439 2.598 35.273h-6l-.113-3.488c-.457-11.69-1.837-22.998-3.887-34.512h-4l.21 2.265c.949 11.47 1.033 22.919 1.04 34.423l.002 3.163c-.017 16.254-.638 32.078-3.252 48.15l-.536 3.401c-4.895 30.547-12.737 59.995-22.335 89.356C95.966 293.44 93.513 302.918 92 313l-.398 2.582c-3.368 26.714.574 58.788 16.658 81.17C120.556 412.401 137.712 419.142 157 422c24.755 2.71 56.035 2.68 76.719-13.07 15.15-13.097 21.044-28.899 25.281-47.93l.754-3.344c5.704-31.593-2.367-60.353-11.809-90.148C239.919 242.082 233.842 216.395 230 190l-.5-3.432c-2.164-15.569-2.78-30.999-2.812-46.693l-.011-2.578c-.028-12.218.828-24.173 2.324-36.297h-3zm83 108l-1 25-5 1-1-25h-6l.438 4.5.273 2.805c.227 2.114.526 4.22.852 6.32.892 6.719.511 13.613.438 20.375l-3 1-2-1c-.379-1.974-.379-1.974-.562-4.559l-.227-2.861-.211-3.018c-.531-7.33-1.379-14.387-3-21.562-3.049-1.011-3.049-1.011-6 0l.621 2.93c2.54 12.177 3.541 23.59 3.379 36.07l-5 1c-1-3-1-3-.937-6.687.107-10.95-1.753-21.899-5.062-32.312h-7l.351 1.861 1.586 8.514.553 2.926.537 2.91.492 2.634c3.829 25.13.726 50.711-1.531 75.846l-.922 10.706c-1.367 16.051-2.794 32.084-5.097 48.032l-.451 3.182c-1.081 7.004-2.854 13.55-5.583 20.095-1.769 4.27-2.313 7.678-1.934 12.293 2.939 4.6 7.975 5.653 13 7 3.468.615 6.929.964 10.438 1.25l2.896.245c13.508 1.011 31.273 1.871 43.291-5.37 3.119-2.791 5.083-5.408 5.795-9.594-.02-8.699-1.663-16.838-3.497-25.298-4.518-20.951-8.035-42-10.924-63.232l-.323-2.346c-4.107-30.003-6.858-61.356-1.236-91.334L317 210l-1-1h-7z" fill="#fff"/></svg>